name Walk9.mot
datacolumns 19
datarows 10
range 1.68100000 1.69000000
endheader

                time	   L_ground_force_vx	   L_ground_force_vy	   L_ground_force_vz	   L_ground_force_px	   L_ground_force_py	   L_ground_force_pz	   R_ground_force_vx	   R_ground_force_vy	   R_ground_force_vz	   R_ground_force_px	   R_ground_force_py	   R_ground_force_pz	   L_ground_torque_x	   L_ground_torque_y	   L_ground_torque_z	   R_ground_torque_x	   R_ground_torque_y	   R_ground_torque_z	
          1.68100000	          0.11189104	        685.56518448	         48.97351486	         -0.23347739	          0.00000000	         -0.08151360	         -0.05230961	          0.55700581	          0.02010139	         -0.00000059	          0.00000000	          0.00000167	          0.00000000	          2.17759253	          0.00000000	          0.00000000	         -0.00813094	          0.00000000	
          1.68200000	          0.36042295	        687.21962371	         49.07643002	         -0.23307391	          0.00000000	         -0.08151680	         -0.04876706	          0.53160683	          0.01903609	         -0.00001664	          0.00000000	         -0.00000758	          0.00000000	          2.18762687	          0.00000000	          0.00000000	         -0.00759729	          0.00000000	
          1.68300000	          0.61381120	        688.89740700	         49.17471254	         -0.23267553	          0.00000000	         -0.08151771	         -0.04469392	          0.50165215	          0.01779318	         -0.00003411	          0.00000000	         -0.00001766	          0.00000000	          2.19704602	          0.00000000	          0.00000000	         -0.00698267	          0.00000000	
          1.68400000	          0.87234596	        690.59822107	         49.26830240	         -0.23228231	          0.00000000	         -0.08151636	         -0.04005769	          0.46684216	          0.01636129	         -0.00005307	          0.00000000	         -0.00002860	          0.00000000	          2.20585163	          0.00000000	          0.00000000	         -0.00628210	          0.00000000	
          1.68500000	          1.13632308	        692.32170806	         49.35714595	         -0.23189429	          0.00000000	         -0.08151277	         -0.03482521	          0.42686943	          0.01472877	         -0.00007357	          0.00000000	         -0.00004045	          0.00000000	          2.21404535	          0.00000000	          0.00000000	         -0.00549048	          0.00000000	
          1.68600000	          1.40604458	        694.06746553	         49.44119653	         -0.23151154	          0.00000000	         -0.08150696	         -0.02896268	          0.38141930	          0.01288372	         -0.00009567	          0.00000000	         -0.00005322	          0.00000000	          2.22162860	          0.00000000	          0.00000000	         -0.00460263	          0.00000000	
          1.68700000	          1.68181864	        695.83504657	         49.52041503	         -0.23113408	          0.00000000	         -0.08149895	         -0.02243576	          0.33017049	          0.01081401	         -0.00011942	          0.00000000	         -0.00006697	          0.00000000	          2.22860259	          0.00000000	          0.00000000	         -0.00361327	          0.00000000	
          1.68800000	          1.96395923	        697.62395957	         49.59477019	         -0.23076195	          0.00000000	         -0.08148879	         -0.01520967	          0.27279581	          0.00850732	         -0.00014490	          0.00000000	         -0.00008171	          0.00000000	          2.23496867	          0.00000000	          0.00000000	         -0.00251705	          0.00000000	
          1.68900000	          2.25278514	        699.43366794	         49.66423868	         -0.23039520	          0.00000000	         -0.08147650	         -0.00724927	          0.20896296	          0.00595113	         -0.00017214	          0.00000000	         -0.00009749	          0.00000000	          2.24072865	          0.00000000	          0.00000000	         -0.00130857	          0.00000000	
          1.69000000	          2.54861850	        701.26358999	         49.72880499	         -0.23003385	          0.00000000	         -0.08146212	          0.00148078	          0.13833544	          0.00313284	         -0.00020120	          0.00000000	         -0.00011433	          0.00000000	          2.24588521	          0.00000000	          0.00000000	          0.00001762	          0.00000000	
